HIERARCHY
ROOT hip
{
	OFFSET 0.000000 0.000000 0.000000 
	CHANNELS 6 Xposition Yposition Zposition Xrotation Zrotation Yrotation
	JOINT abdomen
	{
		OFFSET 0.000000 3.402643 0.000000 
		CHANNELS 3 Xrotation Zrotation Yrotation
		JOINT chest
		{
			OFFSET 0.000000 8.438565 -0.680529 
			CHANNELS 3 Xrotation Zrotation Yrotation
			JOINT neck
			{
				OFFSET 0.000000 10.207942 -0.272212 
				CHANNELS 3 Xrotation Zrotation Yrotation
				JOINT head
				{
					OFFSET 0.000000 3.130431 0.000000 
					CHANNELS 3 Xrotation Zrotation Yrotation
					End Site
					{
						OFFSET 0.000000 3.130435 0.000000 
					}
				}
			}
			JOINT lCollar
			{
				OFFSET 3.470700 6.669187 -0.816635 
				CHANNELS 3 Yrotation Zrotation Xrotation
				JOINT lShldr
				{
					OFFSET 3.198488 0.000000 0.000000 
					CHANNELS 3 Zrotation Yrotation Xrotation
					JOINT lForeArm
					{
						OFFSET 10.139888 0.000000 0.000000 
						CHANNELS 3 Yrotation Zrotation Xrotation
						JOINT lHand
						{
							OFFSET 8.370511 0.000000 0.000000 
							CHANNELS 3 Zrotation Yrotation Xrotation
							End Site
							{
								OFFSET 4.083176 0.000000 0.000000 
							}
						}
					}
				}
			}
			JOINT rCollar
			{
				OFFSET -3.470700 6.669187 -0.816635 
				CHANNELS 3 Yrotation Zrotation Xrotation
				JOINT rShldr
				{
					OFFSET -3.198488 0.000000 0.000000 
					CHANNELS 3 Zrotation Yrotation Xrotation
					JOINT rForeArm
					{
						OFFSET -10.139888 0.000000 0.000000 
						CHANNELS 3 Yrotation Zrotation Xrotation
						JOINT rHand
						{
							OFFSET -8.370511 0.000000 0.000000 
							CHANNELS 3 Zrotation Yrotation Xrotation
							End Site
							{
								OFFSET -4.083176 0.000000 0.000000 
							}
						}
					}
				}
			}
		}
	}
	JOINT lThigh
	{
		OFFSET 5.308129 -1.633274 1.361059 
		CHANNELS 3 Xrotation Zrotation Yrotation
		JOINT lShin
		{
			OFFSET -2.041588 -20.007561 0.000000 
			CHANNELS 3 Xrotation Zrotation Yrotation
			JOINT lFoot
			{
				OFFSET 0.000000 -19.190928 -1.224953 
				CHANNELS 3 Xrotation Yrotation Zrotation
				End Site
				{
					OFFSET 0.000000 -2.449906 4.627600 
				}
			}
		}
	}
	JOINT rThigh
	{
		OFFSET -5.308129 -1.633274 1.361059 
		CHANNELS 3 Xrotation Zrotation Yrotation
		JOINT rShin
		{
			OFFSET 2.041588 -20.007561 0.000000 
			CHANNELS 3 Xrotation Zrotation Yrotation
			JOINT rFoot
			{
				OFFSET 0.000000 -19.190928 -1.224953 
				CHANNELS 3 Xrotation Yrotation Zrotation
				End Site
				{
					OFFSET 0.000000 -2.449906 4.627600 
				}
			}
		}
	}
}
MOTION
Frames: 8
Frame Time: 0.033333
-0.328082 46.394085 0.026425 -2.312684 7.103643 93.445305 0.000000 0.000000 0.000000 7.766706 1.596554 6.585102 27.440777 2.807670 0.077768 -23.085995 0.099716 2.047815 -9.550533 0.616727 25.000000 -76.594559 2.446271 -9.304325 -53.751484 10.132212 73.200844 -22.129749 -12.363967 -53.314003 -12.672146 3.949137 25.000000 52.535858 8.734105 60.491093 32.755302 -40.720127 32.649261 40.387787 1.777729 -81.703178 26.278206 4.570570 17.243900 6.151309 3.858656 1.262178 -4.335329 -11.902553 6.860852 28.268198 -0.585908 0.703384 0.712428 -1.034710 -0.967560 6.262297 2.558698 5.303462 
-0.294643 46.405365 0.025180 -2.274647 7.367301 93.342140 0.000000 0.000000 0.000000 8.108556 1.575891 6.572332 27.545689 2.708116 0.077594 -23.134905 0.157800 2.070364 -9.559240 0.535529 25.000000 -77.132011 3.867394 -9.085465 -53.495399 10.279216 72.746437 -22.147289 -12.432914 -53.255997 -12.565134 3.997494 25.000000 52.963985 7.331227 60.928997 32.805939 -40.398956 32.829597 40.650784 1.857302 -81.700333 26.733597 4.541680 17.174385 5.963991 3.789253 1.260763 -4.301016 -11.737103 6.847866 28.629501 -0.615606 0.700093 0.610495 -1.017801 -0.980600 6.263789 2.654956 5.272675 
-0.265135 46.413982 0.029052 -2.275870 7.601492 93.214478 0.000000 0.000000 0.000000 8.391903 1.584423 6.562013 27.640081 2.574399 0.058433 -23.105927 0.290776 2.105507 -9.497232 0.468302 25.000000 -77.655327 5.191394 -8.866561 -53.183933 10.345224 72.209778 -22.073912 -12.254725 -53.318550 -12.466964 4.041667 25.000000 53.370464 5.976131 61.345940 32.792969 -40.132481 32.798828 41.001198 2.034852 -81.699768 27.129734 4.552386 17.108597 5.824809 3.698541 1.258622 -4.266300 -11.550558 6.845909 28.952871 -0.625394 0.690416 0.532485 -1.026450 -0.992552 6.265260 2.775214 5.218837 
-0.243905 46.416027 0.031273 -2.256943 7.747964 93.113686 0.000000 0.000000 0.000000 8.616597 1.583495 6.558456 27.725443 2.467088 0.051960 -23.038233 0.457269 2.130351 -9.417627 0.467144 25.000000 -78.260567 6.589636 -8.601992 -52.840420 10.300114 71.777992 -22.004128 -11.969164 -53.400681 -12.386318 4.067911 25.000000 53.852215 4.439633 61.830650 32.733334 -39.904919 32.695583 41.380512 2.349061 -81.677155 27.378971 4.551689 17.082535 5.767730 3.622688 1.236827 -4.277335 -11.423892 6.845908 29.147696 -0.663918 0.681941 0.476674 -1.041335 -0.993936 6.275537 2.883125 5.160692 
-0.233622 46.408543 0.027017 -2.198014 7.787305 93.051743 0.000000 0.000000 0.000000 8.733587 1.525087 6.543027 27.802263 2.409087 0.052291 -22.990261 0.607237 2.146081 -9.347033 0.577448 25.000000 -79.006683 8.078856 -8.244140 -52.484066 10.148309 71.646767 -22.020483 -11.774267 -53.390141 -12.313923 4.051797 25.000000 54.412712 2.643755 62.384892 32.654594 -39.663563 32.561882 41.691578 2.721398 -81.631035 27.436264 4.513093 17.048738 5.809779 3.574313 1.244537 -4.302120 -11.358549 6.870792 29.204790 -0.732321 0.663612 0.456040 -1.028843 -0.994728 6.268455 2.922913 5.122625 
-0.230392 46.394848 0.021560 -2.158388 7.748471 93.019432 0.000000 0.000000 0.000000 8.801889 1.505505 6.532092 27.771441 2.345047 0.043551 -23.020021 0.673571 2.182937 -9.337831 0.782384 25.000000 -79.672195 9.131989 -7.890563 -52.261791 10.062807 71.859505 -22.141668 -12.002826 -53.155685 -12.348242 3.968199 25.000000 54.815056 1.376646 62.786636 32.747566 -39.416298 32.655716 41.691242 2.809289 -81.582191 27.361341 4.492829 17.074007 5.934451 3.554830 1.213794 -4.381014 -11.337558 6.905646 29.174501 -0.781205 0.645418 0.448613 -1.053228 -1.004344 6.258682 2.956802 5.113341 
-0.223710 46.383785 0.017442 -2.128723 7.729102 92.966827 0.000000 0.000000 0.000000 8.860425 1.485968 6.520855 27.770887 2.322046 0.049223 -23.049137 0.648420 2.237027 -9.409293 1.047761 25.000000 -80.469795 10.110191 -7.450411 -51.968102 10.236280 72.107590 -22.300915 -12.281407 -52.890938 -12.375143 3.919498 25.000000 55.137794 0.154364 63.139797 32.966671 -39.180485 32.864086 41.672070 2.711559 -81.544800 27.339031 4.454210 17.052114 5.984900 3.526464 1.202570 -4.415370 -11.300205 6.960562 29.164553 -0.820018 0.622017 0.448460 -1.063149 -0.984660 6.257594 2.998096 5.095756 
-0.211218 46.376385 0.019166 -2.118917 7.738910 92.870125 0.000000 0.000000 0.000000 8.938459 1.456709 6.518327 27.790062 2.304316 0.040980 -23.049137 0.648420 2.295621 -9.454296 1.277377 25.000000 -81.368156 11.161661 -6.923634 -51.351456 10.568554 71.697357 -22.326448 -12.409225 -52.751949 -12.320444 3.894941 25.000000 55.479649 -1.291529 63.514538 33.279320 -38.998936 33.131660 41.711914 2.506629 -81.541512 27.371012 4.443768 17.047949 6.035051 3.478340 1.190650 -4.471227 -11.219534 7.002787 29.192383 -0.849420 0.624302 0.437098 -1.078602 -1.004357 6.253107 3.086107 5.052111 
